<svg xmlns="http://www.w3.org/2000/svg" version="1.1" xmlns:xlink="http://www.w3.org/1999/xlink" xmlns:svgjs="http://svgjs.dev/svgjs" width="1000" height="1000" viewBox="0 0 1000 1000"><rect width="1000" height="1000" fill="#ffffff"></rect><g transform="matrix(0.7,0,0,0.7,149.57575757575756,399.21455612497255)"><svg viewBox="0 0 396 114" data-background-color="#ffffff" preserveAspectRatio="xMidYMid meet" height="287" width="1000" xmlns="http://www.w3.org/2000/svg" xmlns:xlink="http://www.w3.org/1999/xlink"><g id="tight-bounds" transform="matrix(1,0,0,1,0.2400000000000091,0.19034644974180992)"><svg viewBox="0 0 395.52 113.61930710051641" height="113.61930710051641" width="395.52"><g><svg viewBox="0 0 578.9106896704529 166.30115148017532" height="113.61930710051641" width="395.52"><g transform="matrix(1,0,0,1,0,46.95558304646857)"><svg viewBox="0 0 395.52 72.38998538723818" height="72.38998538723818" width="395.52"><g><svg viewBox="0 0 395.52 72.38998538723818" height="72.38998538723818" width="395.52"><g><svg viewBox="0 0 395.52 72.38998538723818" height="72.38998538723818" width="395.52"><g transform="matrix(1,0,0,1,0,0)"><svg width="395.52" viewBox="4.909999847412109 -36.209999084472656 200.47000122070312 36.70000076293945" height="72.38998538723818" data-palette-color="#db545a"><path d="M24.8-3.71L24.8 0 4.91 0 4.91-35.69 24.8-35.69 24.8-32.01 9.06-32.01 9.06-20.51 23.85-20.51 23.85-16.85 9.06-16.85 9.06-3.71 24.8-3.71ZM59.45 0L55.15 0 50.71-11.35 36.4-11.35 32 0 27.81 0 41.92-35.84 45.41-35.84 59.45 0ZM37.86-15.09L49.41-15.09 45.26-26.15Q44.46-28.25 43.6-31.3L43.6-31.3Q43.06-28.96 42.06-26.15L42.06-26.15 37.86-15.09ZM84.49-9.5L84.49-9.5Q84.49-4.79 81.07-2.15 77.66 0.49 71.8 0.49L71.8 0.49Q65.45 0.49 62.03-1.15L62.03-1.15 62.03-5.15Q64.23-4.22 66.82-3.69 69.4-3.15 71.94-3.15L71.94-3.15Q76.09-3.15 78.19-4.72 80.29-6.3 80.29-9.11L80.29-9.11Q80.29-10.96 79.55-12.15 78.8-13.33 77.06-14.33 75.31-15.33 71.75-16.6L71.75-16.6Q66.77-18.38 64.63-20.83 62.5-23.27 62.5-27.2L62.5-27.2Q62.5-31.32 65.6-33.76 68.7-36.21 73.8-36.21L73.8-36.21Q79.12-36.21 83.59-34.25L83.59-34.25 82.29-30.64Q77.88-32.5 73.7-32.5L73.7-32.5Q70.41-32.5 68.55-31.08 66.69-29.66 66.69-27.15L66.69-27.15Q66.69-25.29 67.38-24.11 68.06-22.92 69.68-21.94 71.31-20.95 74.65-19.75L74.65-19.75Q80.27-17.75 82.38-15.45 84.49-13.16 84.49-9.5ZM91.42-35.69L100.87-17.85 110.39-35.69 114.89-35.69 102.97-13.84 102.97 0 98.77 0 98.77-13.65 86.88-35.69 91.42-35.69ZM123.94-15.26L123.94 0 119.79 0 119.79-35.69 139.69-35.69 139.69-32.01 123.94-32.01 123.94-18.95 138.74-18.95 138.74-15.26 123.94-15.26ZM149.74 0L145.59 0 145.59-35.69 149.74-35.69 149.74 0ZM179.43 0L159.53 0 159.53-35.69 163.68-35.69 163.68-3.76 179.43-3.76 179.43 0ZM205.38 0L185.48 0 185.48-35.69 189.63-35.69 189.63-3.76 205.38-3.76 205.38 0Z" opacity="1" transform="matrix(1,0,0,1,0,0)" fill="#db545a" class="undefined-text-0" data-fill-palette-color="primary" id="text-0"></path></svg></g></svg></g></svg></g></svg></g><g transform="matrix(1,0,0,1,412.60953819027765,0)"><svg viewBox="0 0 166.30115148017532 166.30115148017532" height="166.30115148017532" width="166.30115148017532"><g><svg></svg></g><g id="icon-0"><svg viewBox="0 0 166.30115148017532 166.30115148017532" height="166.30115148017532" width="166.30115148017532"><g><rect width="151.21086180882608" height="151.21086180882608" x="7.54514483567462" y="7.54514483567462" fill="#3d9970" data-fill-palette-color="accent"></rect><rect width="151.21086180882608" height="151.21086180882608" x="0" y="0" fill="#3d9970" opacity="0.5" data-fill-palette-color="accent"></rect></g><g transform="matrix(1,0,0,1,21.562469828048513,21.55755667335606)"><svg viewBox="0 0 123.1762118240783 123.1860381334632" height="123.1860381334632" width="123.1762118240783"><g><svg xmlns="http://www.w3.org/2000/svg" viewBox="4 4 55.99553298950195 56" x="0" y="0" height="123.1860381334632" width="123.1762118240783" class="icon-s-0" data-fill-palette-color="background" id="s-0"><g fill="#ffffff" data-fill-palette-color="background"><path d="M36 28H26v4h5a1 1 0 0 1 1 1v3.586l4-4Z" fill="#ffffff" data-fill-palette-color="background"></path><polygon points="35.091 42.505 32.495 39.909 31.456 43.544 35.091 42.505" fill="#ffffff" data-fill-palette-color="background"></polygon><rect x="26" y="34" width="4" height="4" fill="#ffffff" data-fill-palette-color="background"></rect><rect x="26" y="22" width="4" height="4" fill="#ffffff" data-fill-palette-color="background"></rect><rect x="32" y="22" width="4" height="4" fill="#ffffff" data-fill-palette-color="background"></rect><rect x="38" y="10" width="4" height="4" fill="#ffffff" data-fill-palette-color="background"></rect><polygon points="11 5.414 5.414 11 11 11 11 5.414" fill="#ffffff" data-fill-palette-color="background"></polygon><rect x="38" y="16" width="4" height="4" fill="#ffffff" data-fill-palette-color="background"></rect><path d="M37.274 43.961l-7 2A0.981 0.981 0 0 1 30 46a1 1 0 0 1-0.962-1.275L30.388 40H26v5a1 1 0 0 1-1 1H19a1 1 0 0 1-1-1V40H7a1 1 0 0 1-1-1V33a1 1 0 0 1 1-1H18V28H7a1 1 0 0 1-1-1V21a1 1 0 0 1 1-1H18V15a1 1 0 0 1 1-1h6a1 1 0 0 1 1 1v5H36V9a1 1 0 0 1 1-1h6a1 1 0 0 1 1 1V24.586l6-6V4H13v8a1 1 0 0 1-1 1H4V60H50V31.414L37.707 43.707A0.992 0.992 0 0 1 37.274 43.961ZM22 6h8V8H22ZM16 6h4V8H16Zm0 4H30v2H16ZM10 48h6v2H10ZM8 58H6V56H8Zm0-4H6V52H8Zm0-4H6V48H8Zm6 8H10V56h4Zm7 0H16V56h5Zm0-4H10V52H21Zm13 4H32V56h2Zm0-4H32V52h2Zm0-4H32V48h2Zm10 8H36V56h8Zm3-4H36V52H47Zm0-4H36V48H47Z" fill="#ffffff" data-fill-palette-color="background"></path><rect x="38" y="22" width="4" height="4" fill="#ffffff" data-fill-palette-color="background"></rect><polygon points="38 30.586 40.586 28 38 28 38 30.586" fill="#ffffff" data-fill-palette-color="background"></polygon><rect x="8" y="34" width="4" height="4" fill="#ffffff" data-fill-palette-color="background"></rect><rect x="8" y="22" width="4" height="4" fill="#ffffff" data-fill-palette-color="background"></rect><rect x="14" y="34" width="4" height="4" fill="#ffffff" data-fill-palette-color="background"></rect><polygon points="43.707 27.707 43.707 27.707 33.414 38 37 41.586 55.575 23.011 51.989 19.425 43.707 27.707" fill="#ffffff" data-fill-palette-color="background"></polygon><path d="M59.282 15.718a2.461 2.461 0 0 0-2.693-0.522L59.8 18.411A2.459 2.459 0 0 0 59.282 15.718Z" fill="#ffffff" data-fill-palette-color="background"></path><rect x="54.868" y="16.475" width="2.243" height="5.071" transform="translate(2.956 45.159) rotate(-45)" fill="#ffffff" data-fill-palette-color="background"></rect><rect x="20" y="28" width="4" height="4" fill="#ffffff" data-fill-palette-color="background"></rect><rect x="20" y="34" width="4" height="4" fill="#ffffff" data-fill-palette-color="background"></rect><rect x="20" y="40" width="4" height="4" fill="#ffffff" data-fill-palette-color="background"></rect><rect x="14" y="22" width="4" height="4" fill="#ffffff" data-fill-palette-color="background"></rect><rect x="20" y="22" width="4" height="4" fill="#ffffff" data-fill-palette-color="background"></rect><rect x="20" y="16" width="4" height="4" fill="#ffffff" data-fill-palette-color="background"></rect></g></svg></g></svg></g></svg></g></svg></g></svg></g><defs></defs></svg><rect width="395.52" height="113.61930710051641" fill="none" stroke="none" visibility="hidden"></rect></g></svg></g></svg>