<svg xmlns="http://www.w3.org/2000/svg" version="1.1" xmlns:xlink="http://www.w3.org/1999/xlink" xmlns:svgjs="http://svgjs.dev/svgjs" width="1000" height="406" viewBox="0 0 1000 406"><g transform="matrix(1,0,0,1,-0.6060387484131979,0.11979181212313961)"><svg viewBox="0 0 396 161" data-background-color="#ffffff" preserveAspectRatio="xMidYMid meet" height="406" width="1000" xmlns="http://www.w3.org/2000/svg" xmlns:xlink="http://www.w3.org/1999/xlink"><g id="tight-bounds" transform="matrix(1,0,0,1,0.2399913443716173,-0.04750364963503273)"><svg viewBox="0 0 395.52 161.09500729927007" height="161.09500729927007" width="395.52"><g><svg viewBox="0 0 395.52 161.09500729927007" height="161.09500729927007" width="395.52"><g><svg viewBox="0 0 395.52 161.09500729927007" height="161.09500729927007" width="395.52"><g><svg viewBox="0 0 395.52 161.09500729927007" height="161.09500729927007" width="395.52"><g><svg viewBox="0 0 395.52 161.09500729927007" height="161.09500729927007" width="395.52"><g transform="matrix(1,0,0,1,0,0)"><svg width="395.52" viewBox="1.5499999523162842 -47 168.42999267578125 69.75" height="161.09500729927007" data-palette-color="#ff4316"><path d="M37.75-9.1Q38.5-9.4 39-9.4L39-9.4Q39.8-9.4 40.2-8.8 40.6-8.2 40.6-7.25L40.6-7.25Q40.6-5.75 39.88-4.7 39.15-3.65 37.4-2.8L37.4-2.8Q34.45-1.4 29.75-0.58 25.05 0.25 20.5 0.25L20.5 0.25Q14.2 0.25 9.95-1.18 5.7-2.6 3.63-5.1 1.55-7.6 1.55-10.75L1.55-10.75Q1.55-15.05 4.33-18.07 7.1-21.1 12.5-22.45L12.5-22.45Q9.55-23.3 7.98-25.45 6.4-27.6 6.4-30.25L6.4-30.25Q6.4-33.85 8.68-36.63 10.95-39.4 14.8-40.9 18.65-42.4 23.25-42.4L23.25-42.4Q29.45-42.4 32.55-39.73 35.65-37.05 35.65-32.8L35.65-32.8Q35.65-29.85 34.58-28.03 33.5-26.2 31.5-26.2L31.5-26.2Q30.1-26.2 29.3-26.83 28.5-27.45 28.5-28.7L28.5-28.7Q28.5-29.55 28.75-30.55L28.75-30.55Q29-32.2 29-32.8L29-32.8Q29-34.6 27.65-35.73 26.3-36.85 23.15-36.85L23.15-36.85Q18.9-36.85 16.35-35.05 13.8-33.25 13.8-30.2L13.8-30.2Q13.8-27.85 15.73-26.33 17.65-24.8 22-24.65L22-24.65Q23.1-24.6 23.55-24.15 24-23.7 24-22.65L24-22.65Q24-19.35 21-19.3L21-19.3Q16.85-19.2 14.13-18.15 11.4-17.1 10.18-15.48 8.95-13.85 8.95-12L8.95-12Q8.95-8.9 11.85-7.33 14.75-5.75 21.05-5.75L21.05-5.75Q25.2-5.75 29.83-6.73 34.45-7.7 37.75-9.1L37.75-9.1ZM41.85 0.25Q38.75 0.25 36.9-2 35.05-4.25 35.05-7.9L35.05-7.9Q35.05-11.9 36.9-15.48 38.75-19.05 41.82-21.23 44.9-23.4 48.35-23.4L48.35-23.4Q49.45-23.4 49.82-22.98 50.2-22.55 50.45-21.45L50.45-21.45Q51.5-21.65 52.65-21.65L52.65-21.65Q55.1-21.65 55.1-19.9L55.1-19.9Q55.1-18.85 54.35-14.9L54.35-14.9Q53.2-9.15 53.2-6.9L53.2-6.9Q53.2-6.15 53.57-5.7 53.95-5.25 54.55-5.25L54.55-5.25Q55.5-5.25 56.85-6.48 58.2-7.7 60.5-10.45L60.5-10.45Q61.1-11.15 61.85-11.15L61.85-11.15Q62.5-11.15 62.87-10.55 63.25-9.95 63.25-8.9L63.25-8.9Q63.25-6.9 62.3-5.8L62.3-5.8Q60.25-3.25 57.95-1.5 55.65 0.25 53.5 0.25L53.5 0.25Q51.85 0.25 50.47-0.88 49.1-2 48.4-3.95L48.4-3.95Q45.8 0.25 41.85 0.25L41.85 0.25ZM43.65-4.8Q44.75-4.8 45.75-6.1 46.75-7.4 47.2-9.55L47.2-9.55 49.05-18.75Q46.95-18.7 45.17-17.18 43.4-15.65 42.35-13.15 41.3-10.65 41.3-7.85L41.3-7.85Q41.3-6.3 41.92-5.55 42.55-4.8 43.65-4.8L43.65-4.8ZM68.5 1.35Q65.9 1.35 64.52 0.15 63.15-1.05 63.15-2.55L63.15-2.55Q63.15-3.85 64.1-4.8 65.05-5.75 66.9-5.75L66.9-5.75Q67.55-5.75 68.42-5.63 69.3-5.5 69.75-5.45L69.75-5.45Q69.7-6.75 69.17-7.9 68.65-9.05 67.85-10.13 67.05-11.2 66.35-12L66.35-12Q64.8-9.05 63.27-7.1 61.75-5.15 59.95-3.4L59.95-3.4Q59.05-2.5 58.05-2.5L58.05-2.5Q57.25-2.5 56.75-3.08 56.25-3.65 56.25-4.5L56.25-4.5Q56.25-5.5 56.95-6.35L56.95-6.35 57.6-7.15Q60.35-10.55 61.75-12.75L61.75-12.75Q62.6-14.2 63.75-16.63 64.9-19.05 66-21.65L66-21.65Q66.95-23.85 69.95-23.85L69.95-23.85Q71.35-23.85 71.9-23.6 72.45-23.35 72.45-22.8L72.45-22.8Q72.45-22.5 72.25-21.85 72.05-21.2 71.7-20.55L71.7-20.55Q70.8-18.75 70.8-17.5L70.8-17.5Q70.8-16.75 71.32-15.85 71.85-14.95 72.95-13.6L72.95-13.6Q74.55-11.5 75.37-10.03 76.2-8.55 76.2-6.8L76.2-6.8Q76.2-6.3 76.1-5.4L76.1-5.4Q78.55-6.35 81.85-10.45L81.85-10.45Q82.45-11.15 83.2-11.15L83.2-11.15Q83.85-11.15 84.22-10.55 84.6-9.95 84.6-8.9L84.6-8.9Q84.6-7 83.65-5.8L83.65-5.8Q81.15-2.7 78.87-1.58 76.6-0.45 73.25-0.35L73.25-0.35Q71.25 1.35 68.5 1.35L68.5 1.35ZM106.14-11.05Q106.79-11.05 107.17-10.43 107.54-9.8 107.54-8.85L107.54-8.85Q107.54-7.7 107.19-7.05 106.84-6.4 106.09-5.9L106.09-5.9 96.49 0.55Q94.59 10.9 91.52 16.82 88.44 22.75 83.69 22.75L83.69 22.75Q81.14 22.75 79.54 21.18 77.94 19.6 77.94 17.05L77.94 17.05Q77.94 14.7 79.02 12.25 80.09 9.8 83.02 6.63 85.94 3.45 91.29-0.65L91.29-0.65 91.44-1.8Q91.79-3.65 92.24-7.1L92.24-7.1Q91.24-3.5 89.44-1.63 87.64 0.25 85.64 0.25L85.64 0.25Q83.39 0.25 81.97-1.83 80.54-3.9 80.54-7L80.54-7Q80.54-10.75 81.04-13.88 81.54-17 82.69-20.5L82.69-20.5Q83.19-22 84.09-22.65 84.99-23.3 86.94-23.3L86.94-23.3Q88.04-23.3 88.47-22.95 88.89-22.6 88.89-21.9L88.89-21.9Q88.89-21.5 88.34-19.2L88.34-19.2Q87.84-17.35 87.54-15.85L87.54-15.85Q87.14-13.8 86.84-11.93 86.54-10.05 86.54-8.85L86.54-8.85Q86.54-6.95 87.59-6.95L87.59-6.95Q88.34-6.95 89.47-8.45 90.59-9.95 91.87-13 93.14-16.05 94.34-20.5L94.34-20.5Q94.74-22 95.57-22.65 96.39-23.3 98.04-23.3L98.04-23.3Q99.19-23.3 99.64-23 100.09-22.7 100.09-22L100.09-22Q100.09-20.75 98.79-13.4L98.79-13.4 97.49-5.35Q101.34-8.25 104.99-10.65L104.99-10.65Q105.64-11.05 106.14-11.05L106.14-11.05ZM84.24 17.9Q85.49 17.9 87.04 15 88.59 12.1 90.14 5.35L90.14 5.35Q86.29 8.6 84.57 11.28 82.84 13.95 82.84 15.95L82.84 15.95Q82.84 16.8 83.17 17.35 83.49 17.9 84.24 17.9L84.24 17.9ZM123.44-14Q124.84-14 124.84-11.9L124.84-11.9Q124.84-7.95 118.64-7.95L118.64-7.95Q117.44-7.95 115.19-8.4L115.19-8.4Q115.84-5.3 116.27-1.53 116.69 2.25 116.69 4.7L116.69 4.7Q116.69 10.1 114.94 12.95 113.19 15.8 110.34 15.8L110.34 15.8Q106.74 15.8 105.22 10.7 103.69 5.6 103.69-4.7L103.69-4.7Q103.69-14.3 105.77-24.18 107.84-34.05 111.47-40.53 115.09-47 119.44-47L119.44-47Q121.79-47 123.12-44.9 124.44-42.8 124.44-39.25L124.44-39.25Q124.44-27.5 110.39-13.65L110.39-13.65Q109.89-8.75 109.89-5.05L109.89-5.05Q109.89 0.1 110.24 5.53 110.59 10.95 111.39 10.95L111.39 10.95Q112.89 10.95 112.89 5.75L112.89 5.75Q112.89 1.85 112.37-1.8 111.84-5.45 110.94-9.5L110.94-9.5Q110.89-10.15 111.37-11.15 111.84-12.15 112.54-12.9 113.24-13.65 113.79-13.65L113.79-13.65Q114.79-13.65 116.19-13.55L116.19-13.55Q116.64-13.5 117.24-13.5L117.24-13.5Q119.24-13.5 121.69-13.85L121.69-13.85Q122.09-13.9 122.54-13.95 122.99-14 123.44-14L123.44-14ZM118.39-42.05Q117.49-42.05 116.17-39 114.84-35.95 113.54-30.93 112.24-25.9 111.29-20.3L111.29-20.3Q115.29-24.85 117.44-29.78 119.59-34.7 119.64-39L119.64-39Q119.64-42.05 118.39-42.05L118.39-42.05ZM127.59-26.6Q125.49-26.6 124.44-27.58 123.39-28.55 123.39-30.3L123.39-30.3Q123.39-32.05 124.76-33.23 126.14-34.4 128.19-34.4L128.19-34.4Q130.04-34.4 131.19-33.5 132.34-32.6 132.34-30.95L132.34-30.95Q132.34-28.95 131.04-27.78 129.74-26.6 127.59-26.6L127.59-26.6ZM127.19 0.25Q123.94 0.25 122.46-2.05 120.99-4.35 120.99-8.15L120.99-8.15Q120.99-10.4 121.56-13.93 122.14-17.45 123.04-20.5L123.04-20.5Q123.49-22.1 124.24-22.7 124.99-23.3 126.64-23.3L126.64-23.3Q129.19-23.3 129.19-21.6L129.19-21.6Q129.19-20.35 128.24-15.8L128.24-15.8Q127.04-10.3 127.04-8.35L127.04-8.35Q127.04-6.85 127.44-6.05 127.84-5.25 128.79-5.25L128.79-5.25Q129.69-5.25 131.04-6.5 132.39-7.75 134.64-10.45L134.64-10.45Q135.24-11.15 135.99-11.15L135.99-11.15Q136.64-11.15 137.01-10.55 137.39-9.95 137.39-8.9L137.39-8.9Q137.39-6.9 136.44-5.8L136.44-5.8Q131.49 0.25 127.19 0.25L127.19 0.25ZM152.29-11.15Q152.94-11.15 153.31-10.55 153.69-9.95 153.69-8.9L153.69-8.9Q153.69-6.9 152.74-5.8L152.74-5.8Q150.59-3.15 148.06-1.45 145.54 0.25 142.34 0.25L142.34 0.25Q137.94 0.25 135.81-3.75 133.69-7.75 133.69-14.1L133.69-14.1Q133.69-20.2 135.26-28 136.84-35.8 139.91-41.4 142.99-47 147.24-47L147.24-47Q149.64-47 151.01-44.78 152.39-42.55 152.39-38.4L152.39-38.4Q152.39-32.45 149.09-24.6 145.79-16.75 140.14-9.05L140.14-9.05Q140.49-7 141.29-6.13 142.09-5.25 143.39-5.25L143.39-5.25Q145.44-5.25 146.99-6.43 148.54-7.6 150.94-10.45L150.94-10.45Q151.54-11.15 152.29-11.15L152.29-11.15ZM146.14-42.05Q144.99-42.05 143.54-37.9 142.09-33.75 140.99-27.6 139.89-21.45 139.79-15.8L139.79-15.8Q143.34-21.65 145.44-27.53 147.54-33.4 147.54-38.25L147.54-38.25Q147.54-42.05 146.14-42.05L146.14-42.05ZM168.58-11.15Q169.23-11.15 169.61-10.55 169.98-9.95 169.98-8.9L169.98-8.9Q169.98-6.9 169.03-5.8L169.03-5.8Q166.88-3.15 164.36-1.45 161.83 0.25 158.63 0.25L158.63 0.25Q154.23 0.25 152.11-3.75 149.98-7.75 149.98-14.1L149.98-14.1Q149.98-20.2 151.56-28 153.13-35.8 156.21-41.4 159.28-47 163.53-47L163.53-47Q165.93-47 167.31-44.78 168.68-42.55 168.68-38.4L168.68-38.4Q168.68-32.45 165.38-24.6 162.08-16.75 156.43-9.05L156.43-9.05Q156.78-7 157.58-6.13 158.38-5.25 159.68-5.25L159.68-5.25Q161.73-5.25 163.28-6.43 164.83-7.6 167.23-10.45L167.23-10.45Q167.83-11.15 168.58-11.15L168.58-11.15ZM162.43-42.05Q161.28-42.05 159.83-37.9 158.38-33.75 157.28-27.6 156.18-21.45 156.08-15.8L156.08-15.8Q159.63-21.65 161.73-27.53 163.83-33.4 163.83-38.25L163.83-38.25Q163.83-42.05 162.43-42.05L162.43-42.05Z" opacity="1" transform="matrix(1,0,0,1,0,0)" fill="#ff4316" class="undefined-text-0" data-fill-palette-color="primary" id="text-0"></path></svg></g></svg></g></svg></g></svg></g><g></g></svg></g><defs></defs></svg><rect width="395.52" height="161.09500729927007" fill="none" stroke="none" visibility="hidden"></rect></g></svg></g></svg>